Coordinates
version=1
nRows=29
nColumns=22
inDegrees=yes

Units are S.I. units (second, meters, Newtons, ...)
If the header above contains a line with 'inDegrees', this indicates whether rotational values are in degrees (yes) or radians (no).

endheader
time	pelvis_tilt	pelvis_list	pelvis_rotation	pelvis_tx	pelvis_ty	pelvis_tz	hip_flexion_r	hip_adduction_r	hip_rotation_r	knee_angle_r	ankle_angle_r	subtalar_angle_r	hip_flexion_l	hip_adduction_l	hip_rotation_l	knee_angle_l	ankle_angle_l	subtalar_angle_l	lumbar_extension	lumbar_bending	lumbar_rotation
      6.16000000	      0.57509540	      0.70132301	    -83.40283640	      1.00457732	      1.00102596	      0.14511038	     -0.91950645	     10.16545204	      4.98614950	    -16.02097551	     13.13668196	     -9.79512975	     23.24633096	     -7.13179995	      1.93985655	    -27.12632309	      8.50493383	     10.29830542	     -2.86686057	     -1.62881930	      2.89204500
      6.17000000	      0.53896665	      0.70691550	    -84.31876430	      1.00468184	      0.99988048	      0.15324876	     -1.48697385	     10.14888153	      5.74994366	    -16.03811370	     13.45265121	     -9.83047147	     23.59309713	     -7.03645637	      2.10595120	    -25.45817322	      8.49899429	     10.71018622	     -2.84456936	     -1.54070993	      2.99569181
      6.18000000	      0.50134221	      0.74108365	    -85.22549825	      1.00482028	      0.99865467	      0.16141595	     -2.00894790	     10.11435633	      6.48436915	    -16.08484744	     13.77245158	     -9.86305880	     23.95757620	     -6.93169219	      2.23708553	    -23.82017359	      8.45490511	     11.07820024	     -2.78885253	     -1.44930439	      3.12791207
      6.19000000	      0.47625524	      0.74593580	    -86.10720597	      1.00499782	      0.99744597	      0.16961680	     -2.55961639	     10.05634954	      7.20261553	    -16.13876284	     14.08438273	     -9.86827899	     24.27267101	     -6.80219459	      2.37049545	    -22.20894652	      8.44687371	     11.57442287	     -2.77406691	     -1.36879742	      3.22306848
      6.20000000	      0.44989659	      0.77311923	    -87.00179546	      1.00515894	      0.99617230	      0.17780625	     -3.05650992	      9.98501114	      7.89243932	    -16.24598374	     14.39170087	     -9.87218692	     24.59303635	     -6.67415502	      2.48411992	    -20.62835172	      8.40900752	     11.98365330	     -2.74085922	     -1.29080823	      3.37887848
      6.21000000	      0.42841561	      0.78143121	    -87.88591604	      1.00533027	      0.99490165	      0.18601024	     -3.56626738	      9.89945601	      8.57069679	    -16.36691583	     14.69480281	     -9.85182591	     24.87550796	     -6.53575494	      2.62172306	    -19.08316777	      8.39331148	     12.44765036	     -2.73946325	     -1.21812298	      3.53238166
      6.22000000	      0.40481601	      0.78650059	    -88.76181281	      1.00549377	      0.99361043	      0.19423643	     -4.06740436	      9.80631824	      9.21168866	    -16.50830342	     14.98921740	     -9.81169648	     25.13847856	     -6.39725561	      2.79134268	    -17.58307563	      8.39326356	     12.91847090	     -2.74901642	     -1.14900760	      3.69595012
      6.23000000	      0.38388732	      0.78612825	    -89.63094257	      1.00563844	      0.99231006	      0.20251999	     -4.56927702	      9.69975538	      9.81291131	    -16.66140323	     15.27191399	     -9.74251004	     25.37607205	     -6.25907341	      2.98495227	    -16.13371900	      8.41000209	     13.40761621	     -2.76794914	     -1.09123356	      3.87491242
      6.24000000	      0.35986071	      0.79829758	    -90.48479701	      1.00576932	      0.99097697	      0.21088313	     -5.05780287	      9.58698957	     10.36284724	    -16.81933572	     15.53718613	     -9.65080740	     25.60708285	     -6.12486293	      3.21880487	    -14.73821497	      8.41978753	     13.85850317	     -2.77300106	     -1.03595517	      4.06545571
      6.25000000	      0.33358844	      0.81061192	    -91.31856600	      1.00587629	      0.98964297	      0.21935171	     -5.55211800	      9.46634219	     10.86535584	    -16.97177180	     15.78468086	     -9.50770394	     25.81556667	     -5.99650395	      3.48646531	    -13.40407302	      8.43512629	     14.31802164	     -2.77513625	     -0.98862958	      4.24980943
      6.26000000	      0.29717508	      0.84159274	    -92.14294529	      1.00595253	      0.98829707	      0.22794359	     -6.03169335	      9.34327571	     11.30358887	    -17.12196058	     15.99631094	     -9.32663459	     26.01420553	     -5.88776639	      3.77044488	    -12.13067362	      8.42488972	     14.72742631	     -2.74874436	     -0.93713472	      4.45998125
      6.27000000	      0.25093849	      0.87531676	    -92.94749824	      1.00602329	      0.98697039	      0.23666362	     -6.51428882	      9.21670544	     11.69979781	    -17.27073202	     16.17813156	     -9.07547386	     26.18859732	     -5.79424911	      4.05793615	    -10.93132365	      8.40938640	     15.14205337	     -2.71190209	     -0.87839218	      4.66451754
      6.28000000	      0.19470784	      0.91359774	    -93.73757015	      1.00607192	      0.98567114	      0.24551105	     -6.99275487	      9.08842471	     12.06735609	    -17.42924516	     16.33619843	     -8.74378174	     26.33768273	     -5.71858697	      4.33974606	     -9.81431830	      8.40301104	     15.56941534	     -2.66407392	     -0.81194922	      4.85696003
      6.29000000	      0.12517600	      0.95895479	    -94.52762907	      1.00608486	      0.98441042	      0.25451608	     -7.46508309	      8.95631245	     12.40074492	    -17.59819279	     16.44330993	     -8.37750853	     26.45885720	     -5.66954587	      4.57696057	     -8.78701782	      8.39641552	     15.96204963	     -2.59414752	     -0.73372273	      5.07953182
      6.30000000	      0.04441765	      0.99983498	    -95.31248737	      1.00606555	      0.98321175	      0.26370295	     -7.94179829	      8.81919522	     12.71717896	    -17.78518068	     16.50351699	     -7.98855376	     26.54036186	     -5.63954457	      4.76304492	     -7.86422390	      8.41942137	     16.32434266	     -2.51234172	     -0.64410925	      5.30506936
      6.31000000	     -0.04334976	      1.02595538	    -96.09213068	      1.00600586	      0.98209427	      0.27309755	     -8.43508940	      8.67140575	     13.02545602	    -17.98946509	     16.51610806	     -7.56449631	     26.56799234	     -5.62032813	      4.89111616	     -7.05364009	      8.50139651	     16.66247301	     -2.42762810	     -0.54902400	      5.52258467
      6.32000000	     -0.14064819	      1.03330944	    -96.86617032	      1.00588539	      0.98107588	      0.28274574	     -8.95569243	      8.51511488	     13.32817280	    -18.20087970	     16.46385532	     -7.10509936	     26.53297213	     -5.61054339	      4.95911915	     -6.36410673	      8.64420101	     16.95217601	     -2.33383257	     -0.44867347	      5.73310304
      6.33000000	     -0.24965525	      1.01857772	    -97.64045555	      1.00568674	      0.98016595	      0.29267829	     -9.51018425	      8.35088563	     13.63097200	    -18.41563733	     16.32443650	     -6.60775905	     26.42745184	     -5.61036336	      4.96521124	     -5.80449215	      8.85930473	     17.15897907	     -2.23065148	     -0.34205078	      5.94556249
      6.34000000	     -0.38763626	      1.01892927	    -98.42598946	      1.00535447	      0.97932263	      0.30288830	    -10.06603369	      8.20861802	     13.99133574	    -18.62662096	     16.04858977	     -6.17347251	     26.28342353	     -5.64486899	      4.93667526	     -5.37662316	      9.09751904	     17.23780295	     -2.07482324	     -0.20614646	      6.15172098
      6.35000000	     -0.49156690	      0.92818991	    -99.19336631	      1.00499927	      0.97867632	      0.31346480	    -10.71274166	      7.99278392	     14.26717662	    -18.85802100	     15.79539400	     -5.40630587	     25.98164103	     -5.61582404	      4.91007584	     -5.07222248	      9.44296886	     17.27222719	     -1.97327171	     -0.12737722	      6.33725103
      6.36000000	     -0.61284533	      0.87580779	    -99.96252458	      1.00454944	      0.97806235	      0.32433650	    -11.32665443	      7.78994341	     14.58348245	    -19.09508466	     15.38811166	     -4.67432112	     25.66551692	     -5.60085101	      4.92135663	     -4.90798065	      9.76715368	     17.14216883	     -1.78755812	     -0.02332443	      6.50609730
      6.37000000	     -0.72337817	      0.82445359	   -100.72489917	      1.00400619	      0.97752409	      0.33550402	    -11.92629018	      7.56455769	     14.86914325	    -19.36278951	     14.89267557	     -3.85347902	     25.28802528	     -5.56459814	      5.01085553	     -4.86152078	     10.04486960	     16.86269702	     -1.55800971	      0.06032990	      6.64051988
      6.38000000	     -0.82443218	      0.78396476	   -101.48507129	      1.00340474	      0.97704569	      0.34691594	    -12.48898831	      7.32120489	     15.14044808	    -19.67871333	     14.32696819	     -2.99630433	     24.86282666	     -5.50952750	      5.22843625	     -4.92521654	     10.24733271	     16.43860673	     -1.28353233	      0.13595712	      6.76427200
      6.39000000	     -0.90756002	      0.75912588	   -102.24058233	      1.00272904	      0.97663274	      0.35853190	    -12.99627213	      7.05781539	     15.39161540	    -20.05614915	     13.67999857	     -2.11450027	     24.39654671	     -5.43185618	      5.60157990	     -5.07422067	     10.32306223	     15.87597516	     -0.96212828	      0.19307608	      6.85607690
      6.40000000	     -0.93960945	      0.75480385	   -102.96818242	      1.00204004	      0.97629748	      0.37031313	    -13.42260312	      6.74683222	     15.57481576	    -20.50471776	     12.93918603	     -1.17631168	     23.92564474	     -5.29009164	      6.15463478	     -5.31526965	     10.16330877	     15.13230512	     -0.59053628	      0.19346043	      6.90660770
      6.41000000	     -0.90010243	      0.76707670	   -103.66579383	      1.00134041	      0.97606070	      0.38220231	    -13.74701834	      6.37459653	     15.67609552	    -21.05044753	     12.11564564	     -0.22666190	     23.47180411	     -5.06852528	      6.86895240	     -5.64228483	      9.74564448	     14.20078686	     -0.17494010	      0.11382505	      6.90898753
      6.42000000	     -0.78540470	      0.78752326	   -104.32488909	      1.00064031	      0.97596928	      0.39413506	    -13.96041986	      5.94559566	     15.69169589	    -21.70946481	     11.18303723	      0.69812644	     23.06193465	     -4.76389589	      7.69352741	     -6.06711287	      9.05401247	     13.11619698	      0.26693954	     -0.05399435	      6.85587868
      6.43000000	     -0.58605487	      0.80769763	   -104.94414376	      0.99993933	      0.97606629	      0.40606099	    -14.05521988	      5.45432031	     15.61272454	    -22.49100620	     10.11453446	      1.59371627	     22.74062790	     -4.36729022	      8.49934858	     -6.64311258	      8.13189507	     11.90506215	      0.72301012	     -0.32423314	      6.75368827
      6.44000000	     -0.31849221	      0.81430027	   -105.51626795	      0.99924623	      0.97639081	      0.41792811	    -14.03290095	      4.91899476	     15.42171788	    -23.41016822	      8.88825896	      2.43680783	     22.52962421	     -3.89434210	      9.17314655	     -7.41303381	      7.05381825	     10.67635760	      1.16572885	     -0.68451861	      6.60377219
